HIERARCHY
ROOT joint_Root
{
	OFFSET 0.0 0.0 0.0
	CHANNELS 6 Xposition Yposition Zposition Zrotation Xrotation Yrotation 
	JOINT Hips
	{
		OFFSET 4.5925 91.4895 -427.239
		CHANNELS 6 Xposition Yposition Zposition Zrotation Xrotation Yrotation 
		JOINT Spine
		{
			OFFSET 15.7357 0.0 0.0
			CHANNELS 6 Xposition Yposition Zposition Zrotation Xrotation Yrotation 
			JOINT Chest
			{
				OFFSET 8.98455 -0.406207 0.0
				CHANNELS 6 Xposition Yposition Zposition Zrotation Xrotation Yrotation 
				JOINT Neck
				{
					OFFSET 16.3773 0.0 0.0
					CHANNELS 6 Xposition Yposition Zposition Zrotation Xrotation Yrotation 
					JOINT Head
					{
						OFFSET 6.45672 0.0 0.0
						CHANNELS 6 Xposition Yposition Zposition Zrotation Xrotation Yrotation 
						End Site
						{
							OFFSET 0.0 0.0 0.0
						}
					}
				}
				JOINT Shoulder_L
				{
					OFFSET 12.9942 -0.242716 4.98039
					CHANNELS 6 Xposition Yposition Zposition Zrotation Xrotation Yrotation 
					JOINT UpperArm_L
					{
						OFFSET 5.34809 0.0 0.0
						CHANNELS 6 Xposition Yposition Zposition Zrotation Xrotation Yrotation 
						JOINT LowerArm_L
						{
							OFFSET 24.3286 1.87007e-05 0.0
							CHANNELS 6 Xposition Yposition Zposition Zrotation Xrotation Yrotation 
							JOINT Hand_L
							{
								OFFSET 22.2916 0.0 0.0
								CHANNELS 6 Xposition Yposition Zposition Zrotation Xrotation Yrotation 
								End Site
								{
									OFFSET 0.0 0.0 0.0
								}
							}
						}
					}
				}
				JOINT Shoulder_R
				{
					OFFSET 12.9945 -0.242716 -4.98039
					CHANNELS 6 Xposition Yposition Zposition Zrotation Xrotation Yrotation 
					JOINT UpperArm_R
					{
						OFFSET -5.34813 0.0 0.0
						CHANNELS 6 Xposition Yposition Zposition Zrotation Xrotation Yrotation 
						JOINT LowerArm_R
						{
							OFFSET -24.3289 0.000322201 0.0
							CHANNELS 6 Xposition Yposition Zposition Zrotation Xrotation Yrotation 
							JOINT Hand_R
							{
								OFFSET -22.2915 -0.000108084 0.0
								CHANNELS 6 Xposition Yposition Zposition Zrotation Xrotation Yrotation 
								End Site
								{
									OFFSET 0.0 0.0 0.0
								}
							}
						}
					}
				}
			}
		}
		JOINT UpperLeg_L
		{
			OFFSET -2.19248 -6.46944 0.0
			CHANNELS 6 Xposition Yposition Zposition Zrotation Xrotation Yrotation 
			JOINT LowerLeg_L
			{
				OFFSET 39.0811 0.0 -1.23785e-05
				CHANNELS 6 Xposition Yposition Zposition Zrotation Xrotation Yrotation 
				JOINT Foot_L
				{
					OFFSET 40.9854 0.0 -1.26872e-05
					CHANNELS 6 Xposition Yposition Zposition Zrotation Xrotation Yrotation 
					JOINT Toes_L
					{
						OFFSET 11.7543 0.0 0.0
						CHANNELS 6 Xposition Yposition Zposition Zrotation Xrotation Yrotation 
						End Site
						{
							OFFSET 0.0 0.0 0.0
						}
					}
				}
			}
		}
		JOINT UpperLeg_R
		{
			OFFSET -2.19251 6.46944 0.0
			CHANNELS 6 Xposition Yposition Zposition Zrotation Xrotation Yrotation 
			JOINT LowerLeg_R
			{
				OFFSET -39.0811 -0.00228153 -0.0401928
				CHANNELS 6 Xposition Yposition Zposition Zrotation Xrotation Yrotation 
				JOINT Foot_R
				{
					OFFSET -40.9854 0.0 0.0
					CHANNELS 6 Xposition Yposition Zposition Zrotation Xrotation Yrotation 
					JOINT Toes_R
					{
						OFFSET -11.7543 0.0 0.0
						CHANNELS 6 Xposition Yposition Zposition Zrotation Xrotation Yrotation 
						End Site
						{
							OFFSET 0.0 0.0 0.0
						}
					}
				}
			}
		}
	}
}
MOTION
Frames:	4
Frame Time:	0.0333333
0.000000 0.000000 0.000000 0.000000 0.000000 -0.000000 0.050614 84.509000 -3.505180 89.121000 0.523639 9.785790 15.735700 0.000005 -0.000001 97.506100 80.124000 -99.202900 8.984550 -0.406207 -0.000000 11.864500 2.497680 -3.652510 16.377300 -0.000001 -0.000001 -1.704640 -5.289000 1.801220 6.456720 -0.000001 -0.000000 -3.554240 -9.520330 6.326790 12.994200 -0.242716 4.980390 -92.775100 7.710280 -70.135800 5.348090 -0.000007 -0.000001 -67.114400 19.192400 -4.417390 24.328600 0.000019 0.000005 5.427660 13.074400 -22.781900 22.291600 -0.000001 0.000005 12.142200 5.160700 3.689950 12.994500 -0.242716 -4.980390 88.682700 8.823870 -81.474500 -5.348130 -0.000001 -0.000004 -62.306900 31.158200 -11.915400 -24.328900 0.000322 -0.000009 -0.738014 -1.382900 -28.054900 -22.291500 -0.000108 -0.000004 16.607700 5.427650 -3.858540 -2.192480 -6.469440 -0.000000 -174.039000 -13.925900 -15.698800 39.081100 -0.000007 -0.000012 -0.269108 0.180258 56.185200 40.985400 -0.000006 -0.000013 3.303350 8.707560 -80.693300 11.754300 -0.000000 0.000003 -0.000143 -0.001396 -16.630700 -2.192510 6.469440 -0.000001 177.313000 13.720200 165.225000 -39.081100 -0.002282 -0.040193 0.089080 -0.057523 56.179000 -40.985400 0.000008 0.000006 5.508310 2.339910 -81.072300 -11.754300 -0.000006 -0.000006 -0.318542 -0.394103 -17.160800
0.000000 0.000000 0.000000 0.000000 0.000000 -0.000000 1.148880 85.933700 -3.017410 90.017400 -3.358260 9.301720 15.735700 0.000005 -0.000001 96.027000 80.834700 -97.182100 8.984550 -0.406207 -0.000000 10.487600 1.884100 -2.481930 16.377300 -0.000001 -0.000001 -1.432370 -4.441410 2.010250 6.456720 -0.000001 -0.000000 -2.625910 -7.534900 5.225120 12.994200 -0.242716 4.980390 -92.503900 6.809600 -69.755700 5.348090 -0.000007 -0.000001 -65.725400 17.228700 -3.818830 24.328600 0.000019 0.000005 4.883000 12.723600 -21.199400 22.291600 -0.000001 0.000005 6.818530 5.178490 3.250530 12.994500 -0.242716 -4.980390 88.660900 8.535700 -81.050000 -5.348130 -0.000001 -0.000004 -62.154900 31.046200 -12.719700 -24.328900 0.000322 -0.000009 -0.299955 -0.563883 -27.926900 -22.291500 -0.000108 -0.000004 16.542200 5.421140 -3.637420 -2.192480 -6.469440 -0.000000 -175.531000 -15.959700 -12.767500 39.081100 -0.000007 -0.000012 -0.268836 0.215555 51.277900 40.985400 -0.000006 -0.000013 2.836060 6.702370 -79.063100 11.754300 -0.000000 0.000003 -0.000150 -0.001452 -16.632700 -2.192510 6.469440 -0.000001 175.767000 12.032900 166.618000 -39.081100 -0.002282 -0.040193 0.066282 -0.049146 52.061100 -40.985400 0.000008 0.000006 5.602900 5.181980 -78.866900 -11.754300 -0.000006 -0.000006 -0.304019 -0.378278 -17.337400
0.000000 0.000000 0.000000 0.000000 0.000000 -0.000000 1.983480 87.598700 -2.583260 90.447600 -6.381360 8.294710 15.735700 0.000005 -0.000001 95.707700 81.788100 -95.985900 8.984550 -0.406207 -0.000000 8.582970 1.623540 -0.677825 16.377300 -0.000001 -0.000001 -0.005087 -3.553080 1.994120 6.456720 -0.000001 -0.000000 -2.009830 -6.176510 3.792520 12.994200 -0.242716 4.980390 -92.052600 5.274070 -68.698600 5.348090 -0.000007 -0.000001 -59.700800 12.353600 -9.286920 24.328600 0.000019 0.000005 6.775200 16.197000 -23.069500 22.291600 -0.000001 0.000005 5.389230 5.204180 2.611650 12.994500 -0.242716 -4.980390 88.607200 7.975770 -80.060900 -5.348130 -0.000001 -0.000004 -62.850700 29.816400 -11.210100 -24.328900 0.000322 -0.000009 -0.343514 -0.596103 -29.871900 -22.291500 -0.000108 -0.000004 16.129700 5.424440 -3.749550 -2.192480 -6.469440 -0.000000 -176.759000 -17.113600 -10.173600 39.081100 -0.000007 -0.000012 -0.250196 0.248831 45.157300 40.985400 -0.000006 -0.000013 2.284180 4.840780 -76.607700 11.754300 -0.000000 0.000003 -0.000155 -0.001490 -16.634200 -2.192510 6.469440 -0.000001 174.846000 11.478700 168.089000 -39.081100 -0.002282 -0.040193 0.045541 -0.040005 46.584300 -40.985400 0.000008 0.000006 5.362870 8.162440 -75.825500 -11.754300 -0.000006 -0.000006 -0.271374 -0.342703 -17.654500
0.000000 0.000000 0.000000 0.000000 0.000000 -0.000000 2.415720 89.021900 -2.408870 90.251700 -7.836130 6.909880 15.735700 0.000005 -0.000001 96.701200 82.853200 -95.884700 8.984550 -0.406207 -0.000000 6.420690 1.653390 1.538590 16.377300 -0.000001 -0.000001 2.117450 -3.491990 1.733640 6.456720 -0.000001 -0.000000 -1.241510 -5.171910 2.416750 12.994200 -0.242716 4.980390 -91.487700 3.833880 -68.774300 5.348090 -0.000007 -0.000001 -52.215600 0.491892 -19.223500 24.328600 0.000019 0.000005 6.102180 13.102100 -25.252400 22.291600 -0.000001 0.000005 8.746780 5.164260 3.600260 12.994500 -0.242716 -4.980390 88.539800 7.330600 -78.702000 -5.348130 -0.000001 -0.000004 -63.356100 28.351800 -8.463580 -24.328900 0.000322 -0.000009 -1.149370 -1.801990 -32.510100 -22.291500 -0.000108 -0.000004 15.568500 5.443810 -4.419820 -2.192480 -6.469440 -0.000000 -177.406000 -16.920000 -8.630660 39.081100 -0.000007 -0.000012 -0.221521 0.268161 39.559800 40.985400 -0.000006 -0.000013 1.785950 3.420520 -74.032700 11.754300 -0.000000 0.000003 -0.000160 -0.001534 -16.635800 -2.192510 6.469440 -0.000001 174.851000 12.210500 169.370000 -39.081100 -0.002282 -0.040193 0.032603 -0.033707 41.025400 -40.985400 0.000008 0.000006 5.132740 10.419900 -72.981900 -11.754300 -0.000006 -0.000006 -0.048994 -0.085807 -17.863700
